<?xml version="1.0" standalone="no"?>
<!DOCTYPE svg PUBLIC "-//W3C//DTD SVG 20010904//EN"
 "http://www.w3.org/TR/2001/REC-SVG-20010904/DTD/svg10.dtd">
<svg version="1.0" xmlns="http://www.w3.org/2000/svg"
 width="1024.000000pt" height="1024.000000pt" viewBox="0 0 1024.000000 1024.000000"
 preserveAspectRatio="xMidYMid meet">
<metadata>
Created by potrace 1.16, written by Peter Selinger 2001-2019
</metadata>
<g transform="translate(0.000000,1024.000000) scale(0.100000,-0.100000)"
fill="#8f9531" stroke="none">
<path d="M3790 7824 c-30 -7 -77 -16 -105 -20 -27 -3 -68 -14 -90 -23 -151
-67 -186 -80 -233 -90 -29 -6 -67 -18 -85 -28 -18 -9 -52 -22 -77 -29 -25 -7
-103 -33 -174 -58 -71 -25 -139 -46 -152 -46 -12 0 -46 -11 -75 -24 -30 -12
-75 -26 -100 -29 -26 -4 -64 -13 -85 -21 -66 -24 -346 -132 -409 -158 -33 -14
-89 -30 -125 -37 -35 -7 -81 -22 -102 -32 -23 -12 -47 -17 -62 -13 -13 3 -29
0 -37 -8 -8 -8 -43 -24 -79 -35 -61 -20 -91 -28 -215 -55 -27 -6 -63 -20 -78
-31 -42 -29 -173 -78 -235 -87 -29 -5 -58 -13 -65 -18 -7 -6 -34 -17 -62 -25
-58 -17 -119 -42 -155 -61 -14 -8 -40 -17 -57 -21 -18 -3 -33 -10 -33 -14 0
-4 -17 -17 -37 -29 -37 -21 -87 -66 -149 -134 -32 -34 -104 -162 -118 -208 -9
-27 -20 -200 -20 -295 0 -67 21 -169 41 -200 7 -12 14 -30 16 -41 1 -12 12
-34 22 -50 11 -16 30 -49 44 -74 13 -25 52 -85 85 -135 34 -49 79 -125 100
-168 21 -42 45 -81 55 -86 9 -5 27 -31 40 -58 14 -26 35 -61 48 -76 12 -16 23
-35 23 -43 0 -9 4 -13 9 -10 5 4 24 -17 43 -45 56 -88 108 -173 118 -196 5
-12 29 -49 54 -83 25 -33 48 -70 51 -82 4 -11 31 -51 60 -89 29 -38 56 -83 60
-99 4 -17 13 -30 20 -30 20 0 45 -40 45 -72 0 -21 7 -31 25 -38 14 -5 33 -25
42 -45 9 -19 20 -35 24 -35 5 0 16 -17 25 -37 10 -21 33 -60 52 -88 19 -27 44
-69 55 -94 11 -25 26 -51 33 -59 8 -7 14 -20 14 -27 0 -8 6 -18 14 -22 7 -4
24 -28 37 -52 13 -24 34 -61 46 -83 11 -22 36 -57 55 -77 75 -80 187 -248 207
-312 6 -20 23 -47 36 -59 14 -13 25 -29 25 -35 0 -6 20 -40 45 -76 25 -35 45
-72 45 -81 0 -9 5 -20 10 -23 6 -4 22 -24 35 -45 70 -110 352 -383 446 -431
31 -15 59 -35 62 -44 4 -8 12 -15 19 -15 7 0 69 -21 138 -46 69 -24 135 -47
147 -49 12 -3 33 -9 45 -14 13 -5 25 -9 28 -9 24 -2 159 -42 325 -97 28 -9 79
-21 115 -26 36 -6 79 -17 95 -26 17 -8 66 -17 110 -19 85 -4 141 -9 190 -18
17 -2 61 -7 99 -11 38 -3 73 -8 77 -10 6 -5 82 -11 214 -19 33 -2 80 -6 105
-10 119 -15 951 -25 1013 -11 19 4 328 27 367 27 8 0 35 5 60 10 53 11 173 24
355 38 94 7 144 16 180 32 28 11 66 20 86 19 21 -1 68 11 110 28 41 16 106 36
144 46 39 9 93 25 120 35 28 10 86 28 130 41 71 19 221 77 251 97 6 4 29 19
50 33 21 14 50 30 64 34 37 11 105 69 257 219 99 97 242 299 334 475 29 53 65
114 81 136 15 22 47 69 70 105 23 36 49 74 58 85 10 11 30 43 45 70 15 28 61
97 103 155 41 58 78 117 82 131 9 30 98 166 142 217 15 18 28 39 28 47 0 8 5
15 10 15 6 0 20 20 33 43 47 92 84 151 139 223 31 42 63 88 70 104 7 16 20 31
30 33 10 3 18 14 18 25 0 12 4 23 9 27 5 3 21 29 35 58 48 96 132 227 193 300
39 47 85 115 115 168 9 17 23 38 30 47 8 9 22 38 31 63 10 25 26 55 37 67 11
12 20 24 20 27 0 3 33 54 73 113 76 112 107 168 107 197 0 9 9 29 21 43 19 24
20 38 18 189 -2 172 -9 237 -34 286 -8 17 -15 35 -15 42 0 7 -9 23 -21 36 -11
13 -28 37 -36 54 -18 33 -93 108 -168 168 -27 21 -54 46 -58 53 -5 8 -12 12
-16 9 -5 -2 -64 14 -132 36 -68 22 -149 47 -179 55 -30 8 -64 18 -75 24 -11 5
-49 16 -84 25 -36 8 -79 26 -95 39 -17 12 -46 26 -64 29 -19 4 -48 13 -65 22
-31 14 -69 27 -187 62 -30 9 -100 31 -155 49 -55 18 -136 42 -180 53 -44 11
-120 34 -168 51 -49 16 -95 30 -102 30 -8 0 -22 8 -32 18 -10 11 -40 25 -68
32 -27 7 -55 17 -62 22 -17 13 -115 48 -135 48 -9 0 -54 16 -99 35 -45 19 -99
37 -118 39 -61 8 -132 26 -163 42 -16 9 -32 13 -35 11 -2 -3 -49 10 -104 29
-55 19 -106 34 -114 34 -8 0 -15 5 -15 10 0 6 -7 10 -15 10 -7 0 -51 16 -95
36 -45 19 -89 37 -99 39 -9 2 -35 10 -56 19 -21 9 -45 14 -53 11 -8 -3 -30 3
-50 12 -37 18 -171 24 -225 11 -31 -8 -78 -59 -90 -97 -14 -48 -9 -145 8 -181
26 -53 64 -77 156 -99 129 -30 244 -66 284 -90 20 -11 44 -21 54 -21 10 0 45
-14 77 -32 54 -29 102 -44 209 -68 66 -15 79 -18 110 -29 35 -11 121 -36 185
-53 25 -6 50 -15 57 -20 6 -5 57 -22 113 -38 56 -16 113 -36 126 -45 13 -8 33
-15 44 -15 12 0 55 -16 97 -35 42 -19 81 -35 87 -35 18 1 178 -51 221 -71 22
-11 58 -23 80 -28 217 -51 594 -178 630 -212 5 -5 21 -9 36 -9 14 0 46 -7 70
-16 24 -8 87 -28 139 -43 98 -29 166 -61 163 -77 -2 -14 -18 -20 -148 -57
-111 -32 -160 -50 -272 -98 -23 -10 -59 -23 -80 -28 -21 -6 -67 -20 -103 -31
-155 -51 -259 -81 -307 -90 -29 -5 -66 -16 -82 -24 -15 -8 -40 -17 -54 -20
-14 -2 -73 -25 -131 -50 -58 -26 -134 -53 -168 -62 -34 -9 -78 -25 -97 -35
-20 -11 -42 -19 -50 -19 -8 0 -37 -6 -65 -14 -28 -8 -76 -20 -106 -26 -30 -7
-65 -18 -77 -26 -12 -7 -57 -23 -100 -34 -43 -12 -90 -27 -105 -35 -15 -7 -42
-16 -60 -20 -48 -10 -151 -45 -165 -57 -21 -17 -133 -68 -150 -68 -14 0 -66
-15 -148 -42 -16 -5 -55 -16 -85 -22 -30 -7 -71 -22 -90 -34 -30 -19 -111 -40
-132 -34 -4 1 -28 -9 -54 -23 -26 -14 -61 -25 -78 -25 -17 0 -48 -9 -68 -20
-21 -11 -57 -23 -80 -26 -24 -4 -51 -15 -61 -25 -33 -35 -175 -79 -299 -94
-32 -3 -81 -15 -110 -25 -29 -10 -72 -21 -96 -24 -23 -3 -51 -10 -61 -15 -10
-6 -104 -13 -207 -16 -275 -7 -312 -21 -342 -127 -27 -95 -15 -141 49 -197 56
-48 97 -58 229 -56 141 3 426 22 438 29 5 3 19 7 33 10 13 2 69 18 124 35 55
17 120 33 145 37 25 4 50 10 55 14 6 5 52 20 104 35 51 14 103 32 115 40 11 8
46 21 76 29 30 8 89 26 130 39 41 14 129 42 195 63 66 20 133 43 149 51 16 8
65 26 110 39 44 13 90 28 101 34 11 5 76 28 145 50 69 23 134 45 145 50 44 19
143 48 201 59 33 6 89 22 124 36 35 14 78 25 95 25 18 0 47 12 71 29 21 16 75
39 119 51 44 12 85 25 90 29 10 7 92 39 210 82 33 12 76 23 95 26 19 3 60 13
90 23 30 11 71 21 90 22 19 2 50 12 68 22 19 9 65 24 102 32 87 18 113 28 145
56 26 22 104 52 284 109 103 32 152 36 170 15 14 -17 -1 -51 -50 -119 -16 -22
-29 -44 -29 -49 0 -14 -41 -69 -91 -123 -75 -79 -127 -154 -165 -235 -77 -163
-70 -153 -277 -432 -37 -51 -79 -115 -93 -143 -50 -98 -64 -120 -85 -137 -12
-10 -25 -37 -31 -60 -5 -24 -17 -50 -26 -59 -39 -37 -102 -123 -102 -139 0 -5
-5 -10 -10 -10 -6 0 -18 -16 -27 -35 -9 -19 -20 -35 -25 -35 -4 0 -8 -7 -8
-15 0 -9 -8 -28 -18 -43 -11 -15 -35 -53 -56 -84 -20 -32 -40 -58 -44 -58 -5
0 -14 -12 -21 -26 -6 -15 -34 -59 -60 -99 -27 -40 -52 -86 -56 -104 -3 -17
-10 -31 -14 -31 -4 0 -21 -24 -36 -52 -16 -29 -61 -100 -100 -158 -72 -108
-107 -163 -136 -214 -9 -16 -31 -36 -49 -45 -27 -13 -39 -29 -60 -80 -14 -36
-31 -66 -38 -69 -7 -2 -12 -12 -12 -23 0 -24 -65 -89 -111 -110 -19 -9 -47
-22 -63 -30 -41 -19 -356 -19 -380 0 -9 8 -29 11 -47 9 -60 -9 -250 49 -284
87 -11 12 -39 27 -62 33 -23 7 -48 18 -55 25 -7 6 -24 13 -38 15 -14 1 -43 15
-65 30 -23 16 -56 34 -75 40 -18 7 -41 18 -49 26 -9 7 -38 21 -66 31 -62 23
-197 106 -250 155 -22 20 -64 53 -92 73 -55 38 -59 41 -134 107 -25 22 -52 40
-59 40 -7 0 -47 34 -89 75 -42 41 -114 107 -161 146 -109 92 -200 180 -200
195 0 6 -29 36 -65 67 -35 30 -91 86 -124 124 -32 37 -102 113 -156 167 -53
55 -111 120 -128 146 -41 61 -96 121 -179 193 -36 32 -69 68 -72 80 -3 12 -34
41 -69 65 -170 118 -177 123 -176 145 1 31 62 78 115 88 25 5 52 15 60 24 9 8
26 18 40 21 13 3 24 11 24 16 0 6 60 71 134 144 138 136 196 205 196 233 0 16
110 150 135 164 14 7 68 82 110 152 11 18 35 45 53 60 17 15 32 31 32 36 0 16
101 173 139 214 20 22 52 60 71 83 35 44 85 78 93 64 11 -17 27 -268 25 -382
-3 -122 -2 -126 25 -166 49 -73 165 -96 256 -51 91 45 105 114 100 502 -4 349
-4 490 2 650 5 147 -3 171 -73 228 -40 32 -137 60 -159 46 -8 -5 -41 -9 -74
-9 -36 0 -69 -6 -81 -14 -11 -8 -46 -19 -77 -25 -31 -6 -66 -15 -76 -21 -11
-5 -31 -10 -44 -10 -14 0 -51 -12 -83 -26 -33 -14 -86 -32 -119 -39 -33 -7
-73 -18 -89 -24 -29 -12 -80 -21 -225 -41 -106 -16 -217 -48 -258 -76 -20 -13
-39 -24 -43 -24 -3 0 -16 -18 -28 -41 -30 -55 -30 -152 -1 -213 39 -84 123
-98 312 -52 56 14 127 28 157 31 30 3 79 11 108 17 77 17 81 6 31 -88 -52 -96
-103 -168 -159 -220 -23 -21 -61 -67 -86 -101 -24 -33 -59 -71 -77 -82 -23
-14 -37 -33 -45 -60 -7 -21 -19 -42 -27 -45 -8 -3 -15 -12 -15 -19 0 -18 -102
-171 -143 -216 -18 -19 -50 -53 -73 -75 -22 -23 -63 -70 -92 -106 -37 -46 -68
-74 -109 -95 -32 -16 -60 -32 -63 -35 -12 -12 -51 -30 -64 -30 -8 0 -21 -7
-30 -15 -8 -8 -46 -26 -85 -40 -61 -22 -87 -26 -194 -26 -69 0 -135 5 -148 10
-13 5 -78 26 -144 46 -66 20 -151 52 -190 70 -130 63 -175 78 -377 125 -47 11
-99 25 -115 31 -47 19 -65 26 -138 48 -38 12 -79 26 -90 31 -41 17 -90 34 -95
33 -3 0 -14 6 -25 13 -11 8 -25 14 -32 14 -7 0 -35 10 -61 21 -97 44 -110 49
-122 49 -6 0 -35 10 -63 23 -48 22 -113 39 -197 51 -79 12 -127 27 -215 65
-11 5 -56 19 -100 31 -44 12 -100 31 -125 42 -25 11 -65 29 -90 40 -25 10 -57
26 -73 34 -15 8 -40 13 -56 11 -16 -3 -32 -3 -35 0 -3 3 -40 20 -83 37 -130
53 -109 71 177 151 74 21 156 48 182 61 43 23 214 80 353 119 33 9 76 23 95
30 19 8 60 19 90 26 30 6 73 20 95 31 22 11 94 37 160 59 66 22 143 51 172 65
28 13 58 24 66 24 8 0 40 9 73 21 32 11 79 24 104 29 25 5 56 12 70 15 14 4
30 7 37 9 7 1 20 9 30 18 10 8 63 28 118 43 108 29 214 64 230 75 6 4 64 27
130 50 66 23 149 53 185 66 52 18 207 58 346 89 11 2 38 19 60 36 43 34 57 78
57 175 1 69 -44 136 -105 158 -68 24 -80 25 -138 10z m-2645 -1760 c22 -3 56
-11 75 -18 19 -8 69 -24 110 -36 41 -12 111 -40 155 -61 45 -21 88 -39 96 -39
9 0 19 -3 23 -7 3 -4 12 -8 19 -10 81 -18 162 -47 177 -63 5 -5 75 -23 200
-50 59 -13 103 -27 190 -60 69 -26 153 -54 206 -69 22 -6 49 -20 59 -31 10
-11 26 -20 35 -20 16 0 183 -49 340 -100 36 -11 97 -30 135 -41 39 -12 120
-39 180 -62 61 -22 160 -57 222 -77 62 -21 120 -45 128 -54 9 -9 28 -16 42
-16 24 0 69 -18 148 -58 17 -8 41 -28 55 -44 18 -20 38 -29 65 -32 57 -6 88
-20 132 -59 21 -18 56 -46 78 -62 22 -16 52 -42 66 -58 15 -17 34 -32 43 -33
20 -3 104 -74 105 -90 1 -6 11 -16 24 -23 12 -6 39 -37 61 -67 21 -31 49 -60
62 -66 13 -6 24 -16 24 -22 0 -6 18 -22 39 -36 22 -13 42 -33 45 -45 3 -11 19
-28 36 -37 17 -9 34 -27 39 -40 5 -13 23 -36 41 -53 18 -16 57 -60 87 -97 29
-38 77 -92 106 -122 29 -29 57 -60 63 -67 7 -8 25 -26 40 -41 31 -28 40 -37
85 -83 16 -16 37 -38 47 -48 23 -23 72 -67 75 -67 12 0 136 -130 141 -147 4
-12 12 -20 19 -17 7 2 39 -21 72 -52 55 -50 179 -140 215 -155 8 -4 51 -37 95
-73 44 -37 95 -74 113 -83 18 -8 57 -39 87 -69 29 -29 67 -56 82 -60 15 -4 33
-10 38 -14 20 -15 212 -108 278 -135 38 -15 84 -38 103 -51 19 -13 34 -21 34
-19 0 8 135 -56 152 -72 17 -15 17 -17 1 -28 -16 -11 -111 -31 -197 -41 -17
-2 -67 -8 -111 -14 -173 -22 -263 -31 -332 -35 -40 -2 -86 -6 -104 -10 -98
-22 -953 -38 -1051 -20 -18 3 -67 8 -108 10 -41 1 -106 6 -145 10 -38 4 -99 8
-135 9 -92 4 -214 21 -510 72 -52 9 -115 19 -140 21 -25 3 -49 9 -54 14 -6 5
-20 9 -32 9 -11 0 -48 13 -80 30 -32 16 -67 30 -76 30 -28 0 -120 27 -168 49
-25 11 -52 21 -61 21 -8 0 -24 8 -35 18 -11 10 -25 17 -31 15 -6 -2 -14 1 -18
6 -3 6 -19 11 -35 11 -52 0 -167 58 -200 101 -3 3 -15 10 -28 14 -33 10 -142
119 -142 141 0 11 -17 42 -38 69 -20 28 -46 69 -56 92 -10 24 -31 56 -45 72
-58 65 -180 246 -181 268 0 7 -6 16 -13 20 -20 11 -63 80 -83 133 -10 25 -26
51 -35 57 -16 12 -109 164 -109 179 0 4 -10 17 -22 29 -30 30 -40 43 -63 83
-11 17 -23 32 -27 32 -4 0 -8 6 -8 13 0 7 -5 18 -12 25 -6 6 -13 22 -15 34 -2
13 -16 34 -32 48 -15 14 -36 43 -46 65 -9 22 -30 54 -45 70 -16 17 -36 47 -47
67 -26 54 -103 178 -130 211 -13 16 -26 41 -29 55 -8 31 -35 74 -75 117 -15
17 -51 66 -79 110 -29 44 -75 109 -101 145 -26 36 -51 79 -55 95 -12 48 -71
154 -107 189 -53 54 -81 91 -104 136 -4 8 -15 23 -24 33 -18 19 -101 184 -114
226 -7 23 -6 24 26 17 19 -5 52 -10 74 -12z"/>
</g>
</svg>
